<svg xmlns="http://www.w3.org/2000/svg" viewBox="0 0 512 512">
  <path d="M0 112C0 50.1 50.1 0 112 0h288c61.9 0 112 50.1 112 112v288c0 61.9-50.1 112-112 112H112C50.1 512 0 461.9 0 400V112Zm86 44 32 32 35-35-35-29-32 32Zm341 0-33-32-34 29 34 35 33-32ZM118 267c30-60 77-90 140-90 69 0 118 36 146 107l20-7c-33-83-88-124-166-124-72 0-126 35-160 105l20 9Zm140-109c-31 0-57 25-57 56 0 9 2 17 6 24 8-36 39-63 77-63 11 0 21 2 30 6-10-14-30-23-56-23Zm-89 147c-15 0-27 12-27 25s12 27 27 27h25l-17 54h62l19-54h121v-25c0-15-12-27-27-27H169Zm-16 14h192v18H153v-18Z"/>
</svg>
